PathFileType	4	(X/Y/Z)	C:/Users/CLatella/Desktop/xsens/3Novembre/Meri/Meri-020.trc	
DataRate	CameraRate	NumFrames	NumMarkers	Units	OrigDataRate	OrigDataStartFrame	OrigNumFrames	
240.00	240.00	4	64	mm	240.00	155	1238	
Frame#	Time	pHipOrigin			pRightASI			pLeftASI			pRightCSI			pLeftCSI			pRightIschialTub			pLeftIschialTub			pSacrum			pL5SpinalProcess			pL3SpinalProcess			pT12SpinalProcess			pPX			pIJ			pT4SpinalProcess			pT8SpinalProcess			pC7SpinalProcess			pTopOfHead			pRightAuricularis			pLeftAuricularis			pBackOfHead			pRightAcromion			pLeftAcromion			pRightArmLatEpicondyle			pRightArmMedEpicondyle			pLeftArmLatEpicondyle			pLeftArmMedEpicondyle			pRightUlnarStyloid			pRightRadialStyloid			pRightOlecranon			pLeftUlnarStyloid			pLeftRadialStyloid			pLeftOlecranon			pRightTopOfHand			pRightPinky			pRightBallHand			pLeftTopOfHand			pLeftPinky			pLeftBallHand			pRightGreaterTrochanter			pRightKneeLatEpicondyle			pRightKneeMedEpicondyle			pRightPatella			pLeftGreaterTrochanter			pLeftKneeLatEpicondyle			pLeftKneeMedEpicondyle			pLeftPatella			pRightLatMalleolus			pRightMedMalleolus			pRightTibialTub			pLeftLatMalleolus			pLeftMedMalleolus			pLeftTibialTub			pRightHeelFoot			pRightFirstMetatarsal			pRightFifthMetatarsal			pRightPivotFoot			pRightHeelCenter			pRightToe			pLeftHeelFoot			pLeftFirstMetatarsal			pLeftFifthMetatarsal			pLeftPivotFoot			pLeftHeelCenter			pLeftToe			
		X1	Y1	Z1	X2	Y2	Z2	X3	Y3	Z3	X4	Y4	Z4	X5	Y5	Z5	X6	Y6	Z6	X7	Y7	Z7	X8	Y8	Z8	X9	Y9	Z9	X10	Y10	Z10	X11	Y11	Z11	X12	Y12	Z12	X13	Y13	Z13	X14	Y14	Z14	X15	Y15	Z15	X16	Y16	Z16	X17	Y17	Z17	X18	Y18	Z18	X19	Y19	Z19	X20	Y20	Z20	X21	Y21	Z21	X22	Y22	Z22	X23	Y23	Z23	X24	Y24	Z24	X25	Y25	Z25	X26	Y26	Z26	X27	Y27	Z27	X28	Y28	Z28	X29	Y29	Z29	X30	Y30	Z30	X31	Y31	Z31	X32	Y32	Z32	X33	Y33	Z33	X34	Y34	Z34	X35	Y35	Z35	X36	Y36	Z36	X37	Y37	Z37	X38	Y38	Z38	X39	Y39	Z39	X40	Y40	Z40	X41	Y41	Z41	X42	Y42	Z42	X43	Y43	Z43	X44	Y44	Z44	X45	Y45	Z45	X46	Y46	Z46	X47	Y47	Z47	X48	Y48	Z48	X49	Y49	Z49	X50	Y50	Z50	X51	Y51	Z51	X52	Y52	Z52	X53	Y53	Z53	X54	Y54	Z54	X55	Y55	Z55	X56	Y56	Z56	X57	Y57	Z57	X58	Y58	Z58	X59	Y59	Z59	X60	Y60	Z60	X61	Y61	Z61	X62	Y62	Z62	X63	Y63	Z63	X64	Y64	Z64	

155	0.642	197.35022	91.46723	931.44882	258.52929	-27.97762	1008.75144	258.37860	211.61529	1007.89754	220.45561	-6.93162	1078.87129	220.30492	191.02135	1078.16808	146.76949	41.74040	882.22428	146.66903	140.79223	881.87268	128.43586	91.51746	951.79161	161.43639	91.96952	1025.02567	162.89304	91.21608	1129.45201	168.11687	90.16127	1221.42154	314.58498	87.44890	1291.94322	324.37966	85.13836	1402.24637	188.35920	86.79592	1393.10467	177.81109	88.55394	1312.68785	194.83876	86.79592	1443.53471	378.17505	72.83223	1622.75221	300.77198	14.26507	1558.15756	315.13751	144.00689	1555.24427	263.95403	84.58584	1582.41823	227.63838	-89.25715	1392.40146	221.25928	262.64807	1399.93583	348.33895	-62.63571	1098.61133	330.80899	-4.26948	1096.65240	343.51696	233.76633	1105.79410	319.80881	177.76086	1101.47439	414.54094	-18.73546	880.21512	447.84284	9.99560	896.94141	323.27462	-50.12866	1090.02215	409.41757	202.02152	886.64444	434.88373	164.60083	899.75424	319.55767	226.68402	1097.95836	534.43785	4.11879	751.62857	473.00763	-29.48449	795.12699	435.83808	-12.05499	851.08223	536.09541	221.56065	770.56495	473.66061	240.34634	820.99498	430.56403	205.33665	862.63492	196.74747	-57.51234	905.27945	179.97094	-41.79063	524.84409	181.47781	31.79503	522.08148	222.06294	-3.36535	524.39202	194.98945	241.04955	906.18357	173.84299	232.96266	525.74821	176.65582	159.47746	521.42851	216.58797	195.34105	523.99019	152.44538	-60.97815	100.60893	162.89304	0.80367	95.88739	244.81674	-15.16919	486.82064	153.80157	251.49721	99.95595	156.06188	188.76104	95.93762	240.39657	198.45526	486.56950	117.88775	-25.51639	5.22383	265.66182	-21.59852	4.01833	252.75294	-87.04707	6.27864	277.96796	-57.11051	5.17360	156.76509	-33.05076	9.49330	353.36187	-72.02856	4.11879	111.60911	215.93499	6.52979	258.73020	203.02611	0.20092	249.88988	269.12763	1.30596	273.19619	237.68420	0.00000	150.98874	221.15882	9.19193	349.24308	247.98117	-3.96810 
156	0.646	196.89815	91.41700	931.44882	258.22791	-28.02785	1008.70121	258.02699	211.56506	1007.79708	220.25470	-6.98185	1078.87129	220.10401	191.02135	1078.11785	146.21697	41.69017	882.32474	146.16674	140.69177	881.97314	128.03403	91.46723	951.89207	161.13502	91.91929	1025.12613	162.79258	91.16585	1129.50224	168.21733	90.11104	1221.47176	314.78590	87.39867	1291.69208	324.83173	85.03790	1401.94500	188.81127	86.74569	1393.15490	178.06223	88.50371	1312.73808	195.39128	86.69546	1443.53471	378.87826	72.73177	1622.55130	301.47518	14.16461	1558.00688	315.84071	143.85620	1555.09359	264.65724	84.48538	1582.31777	228.14067	-89.30738	1392.40146	221.71134	262.54762	1399.88560	348.43941	-62.78640	1098.51088	330.90945	-4.42016	1096.50171	343.61742	233.66587	1105.59318	319.90927	177.66040	1101.32371	414.44048	-18.93638	880.06443	447.79261	9.74445	896.69027	323.37508	-50.32958	1089.92170	409.31711	201.92107	886.39330	434.78327	164.55060	899.50310	319.60790	226.58356	1097.75744	534.23693	3.76718	751.32719	472.85695	-29.73564	794.92607	435.73762	-12.30613	850.88131	535.94472	221.51042	770.26357	473.50992	240.29611	820.69361	430.46357	205.28642	862.38378	196.24518	-57.56257	905.32968	179.61934	-41.94132	524.89431	181.17644	31.64435	522.13171	221.71134	-3.51604	524.44225	194.48716	240.99932	906.23380	173.44115	233.01289	525.74821	176.35444	159.47746	521.42851	216.23637	195.39128	524.04042	152.34492	-61.02838	100.60893	162.84281	0.70321	95.88739	244.46513	-15.26965	486.87087	153.80157	251.54744	99.95595	156.06188	188.81127	95.93762	240.04497	198.50549	486.66995	117.83752	-25.56662	5.22383	265.61159	-21.64875	4.01833	252.70271	-87.04707	6.27864	277.91773	-57.11051	5.17360	156.71486	-33.10099	9.49330	353.31164	-72.02856	4.11879	111.65934	215.98522	6.47956	258.73020	203.02611	0.20092	249.88988	269.17786	1.30596	273.19619	237.73443	0.00000	151.03897	221.20905	9.19193	349.24308	247.98117	-3.96810 
157	0.650	196.44609	91.36677	931.49905	257.92654	-28.02785	1008.65098	257.72562	211.51483	1007.74685	220.05378	-7.03208	1078.82106	219.90309	190.97112	1078.06762	145.71468	41.63994	882.42520	145.61422	140.64154	882.07359	127.63220	91.36677	952.04276	160.88387	91.86906	1025.17636	162.69212	91.11563	1129.60270	168.31778	90.01058	1221.57222	315.03705	87.29821	1291.44093	325.33402	84.88721	1401.69385	189.26333	86.64523	1393.20513	178.36361	88.40325	1312.78831	195.99403	86.59500	1443.53471	379.68193	72.58108	1622.35038	302.17839	14.01392	1557.85619	316.54392	143.75574	1554.94290	265.36045	84.33469	1582.16708	228.64296	-89.40784	1392.40146	222.21363	262.44716	1399.83537	348.59010	-62.93709	1098.36019	331.06014	-4.57085	1096.40125	343.71788	233.56541	1105.44249	319.95950	177.55994	1101.12279	414.39025	-19.18752	879.86351	447.74238	9.54353	896.43912	323.52577	-50.48027	1089.82124	409.21665	201.82061	886.14215	434.73304	164.45014	899.20172	319.70836	226.48311	1097.60675	534.13647	3.46581	751.07605	472.75649	-30.03701	794.67492	435.63717	-12.55728	850.63016	535.79403	221.51042	769.96220	473.40947	240.24589	820.44246	430.41334	205.18596	862.13263	195.74288	-57.66303	905.32968	179.21750	-42.04177	524.89431	180.82484	31.54389	522.13171	221.35974	-3.66673	524.49248	193.98487	240.94909	906.23380	173.03932	233.01289	525.79844	176.05307	159.47746	521.42851	215.88476	195.44151	524.04042	152.29469	-61.07861	100.55870	162.79258	0.65298	95.88739	244.11353	-15.42034	486.92110	153.85180	251.54744	99.90572	156.11211	188.86149	95.93762	239.74359	198.55572	486.72018	117.78729	-25.66708	5.22383	265.51113	-21.69898	4.01833	252.65248	-87.14752	6.27864	277.81727	-57.16074	5.17360	156.66463	-33.15122	9.49330	353.26141	-72.07879	4.11879	111.65934	216.03545	6.47956	258.78043	203.07634	0.20092	249.88988	269.22809	1.25573	273.19619	237.78466	0.00000	151.03897	221.25928	9.19193	349.29331	248.03140	-3.96810 
158	0.654	195.99403	91.31654	931.49905	257.57493	-28.07808	1008.55052	257.37402	211.46460	1007.64640	219.85286	-7.08231	1078.82106	219.65195	190.92089	1078.06762	145.21239	41.53948	882.52566	145.11193	140.59131	882.12382	127.23036	91.31654	952.14322	160.58250	91.81883	1025.27682	162.59166	91.06540	1129.70316	168.41824	89.96036	1221.62245	315.28819	87.24798	1291.18978	325.83631	84.78676	1401.39248	189.76562	86.54478	1393.20513	178.66498	88.35302	1312.83854	196.54655	86.49455	1443.53471	380.43536	72.43039	1622.14946	302.93183	13.91347	1557.70550	317.29736	143.60506	1554.79221	266.11388	84.23424	1582.06662	229.14525	-89.45806	1392.40146	222.66569	262.34670	1399.73491	348.79102	-63.13801	1098.25973	331.21082	-4.72154	1096.25057	343.81833	233.51518	1105.24158	320.11019	177.45948	1100.97210	414.34002	-19.43867	879.66260	447.74238	9.29239	896.23821	323.67646	-50.63095	1089.72078	409.16642	201.77038	885.89101	434.68281	164.39991	898.95058	319.80881	226.38265	1097.40584	533.98579	3.16443	750.77467	472.65603	-30.33839	794.42378	435.58694	-12.80843	850.42925	535.69358	221.56065	769.66082	473.25878	240.24589	820.19132	430.31288	205.13573	861.83126	195.29082	-57.71326	905.37991	178.81567	-42.19246	524.94454	180.52346	31.39320	522.13171	220.95790	-3.81741	524.49248	193.43234	240.89886	906.28403	172.63749	233.06312	525.79844	175.75169	159.52769	521.42851	215.53316	195.54197	524.04042	152.19424	-61.17907	100.55870	162.69212	0.60275	95.88739	243.81215	-15.52080	486.97133	153.85180	251.59767	99.90572	156.11211	188.91172	95.93762	239.44222	198.60594	486.77041	117.73706	-25.71731	5.22383	265.46090	-21.74921	4.01833	252.55202	-87.19775	6.27864	277.76704	-57.21097	5.17360	156.56417	-33.20145	9.49330	353.21118	-72.12902	4.11879	111.70957	216.08568	6.47956	258.78043	203.07634	0.20092	249.94011	269.22809	1.25573	273.24642	237.78466	0.00000	151.08920	221.30951	9.19193	349.29331	248.03140	-3.96810 
